/vscmnt/brussel_pixiu_data/_data_brussel/112/vsc11236/PredSimResults/SUBJ09_Falisse2022/SUBJ09_Falisse2022_11471721.mot
version=1
nRows=4
nColumns=124
inDegrees=yes
endheader
                time	         pelvis_tilt	         pelvis_list	     pelvis_rotation	           pelvis_tx	           pelvis_ty	           pelvis_tz	       hip_flexion_r	     hip_adduction_r	      hip_rotation_r	        knee_angle_r	       ankle_angle_r	    subtalar_angle_r	         mtp_angle_r	       hip_flexion_l	     hip_adduction_l	      hip_rotation_l	        knee_angle_l	       ankle_angle_l	    subtalar_angle_l	         mtp_angle_l	    lumbar_extension	      lumbar_bending	     lumbar_rotation	          arm_flex_r	           arm_add_r	           arm_rot_r	        elbow_flex_r	          arm_flex_l	           arm_add_l	           arm_rot_l	        elbow_flex_l	glut_med1_r/activation	glut_med2_r/activation	glut_med3_r/activation	glut_min1_r/activation	glut_min2_r/activation	glut_min3_r/activation	semimem_r/activation	semiten_r/activation	bifemlh_r/activation	bifemsh_r/activation	    sar_r/activation	add_long_r/activation	add_brev_r/activation	add_mag1_r/activation	add_mag2_r/activation	add_mag3_r/activation	    tfl_r/activation	   pect_r/activation	   grac_r/activation	glut_max1_r/activation	glut_max2_r/activation	glut_max3_r/activation	iliacus_r/activation	  psoas_r/activation	quad_fem_r/activation	    gem_r/activation	   peri_r/activation	rect_fem_r/activation	vas_med_r/activation	vas_int_r/activation	vas_lat_r/activation	med_gas_r/activation	lat_gas_r/activation	 soleus_r/activation	tib_post_r/activation	flex_dig_r/activation	flex_hal_r/activation	tib_ant_r/activation	per_brev_r/activation	per_long_r/activation	per_tert_r/activation	ext_dig_r/activation	ext_hal_r/activation	glut_med1_l/activation	glut_med2_l/activation	glut_med3_l/activation	glut_min1_l/activation	glut_min2_l/activation	glut_min3_l/activation	semimem_l/activation	semiten_l/activation	bifemlh_l/activation	bifemsh_l/activation	    sar_l/activation	add_long_l/activation	add_brev_l/activation	add_mag1_l/activation	add_mag2_l/activation	add_mag3_l/activation	    tfl_l/activation	   pect_l/activation	   grac_l/activation	glut_max1_l/activation	glut_max2_l/activation	glut_max3_l/activation	iliacus_l/activation	  psoas_l/activation	quad_fem_l/activation	    gem_l/activation	   peri_l/activation	rect_fem_l/activation	vas_med_l/activation	vas_int_l/activation	vas_lat_l/activation	med_gas_l/activation	lat_gas_l/activation	 soleus_l/activation	tib_post_l/activation	flex_dig_l/activation	flex_hal_l/activation	tib_ant_l/activation	per_brev_l/activation	per_long_l/activation	per_tert_l/activation	ext_dig_l/activation	ext_hal_l/activation	 ercspn_r/activation	 ercspn_l/activation	 intobl_r/activation	 intobl_l/activation	 extobl_r/activation	 extobl_l/activation	
          0.00000000	         -9.67978676	         -3.64322412	          3.15210178	          0.00000000	          0.98478074	         -0.00485301	         32.42279907	          4.23101296	          0.45273137	         -3.42713398	         10.88758504	         -9.01141540	          0.17981217	         -9.64265632	         -1.41687141	          8.80980859	         -5.62827765	          5.83032354	         -4.41765701	         29.76391112	          2.48489806	          2.62318728	         -1.49653749	        -13.08067876	        -13.44986208	         19.05418804	         24.28265896	          6.91233795	        -13.52529535	         19.36134014	         59.21723923	          0.09902032	          0.01196278	          0.01000023	          0.12057562	          0.02301383	          0.01196272	          0.26189993	          0.01196303	          0.01196320	          0.01000026	          0.01650001	          0.02450300	          0.12594344	          0.13409940	          0.10743120	          0.05611524	          0.01000537	          0.01714252	          0.04876692	          0.01644999	          0.01677377	          0.04690549	          0.01536909	          0.01428749	          0.31901807	          0.16040259	          0.10172665	          0.01711977	          0.11253760	          0.11917679	          0.09738839	          0.01000000	          0.01000001	          0.00999999	          0.01196269	          0.01000170	          0.01000018	          0.36972010	          0.18503755	          0.12661949	          0.28625959	          0.43852079	          0.09464038	          0.08903383	          0.11262295	          0.11630538	          0.13479629	          0.15325618	          0.15081514	          0.01000020	          0.01000020	          0.01000018	          0.05152375	          0.07224599	          0.02888192	          0.01000074	          0.01000106	          0.01000129	          0.01000023	          0.21798601	          0.02495111	          0.01718344	          0.02408261	          0.01823058	          0.01002074	          0.29660063	          0.44068880	          0.03501296	          0.03379390	          0.15691276	          0.14208799	          0.01000069	          0.01000064	          0.01000060	          0.29622844	          0.40801889	          0.29102607	          0.27020642	          0.31958345	          0.32730817	          0.01196277	          0.01000014	          0.01000012	          0.01000014	          0.01000003	          0.01000019	          0.06043991	          0.01706897	          0.02643306	          0.01000009	          0.05403852	          0.01000001	
          0.01177615	         -9.66279064	         -3.93762658	          3.34564172	          0.01742336	          0.98350359	         -0.00465296	         31.54531995	          4.62755720	          0.80763210	         -3.30462365	          9.77611828	         -9.44400658	          0.18636003	         -9.54304099	         -1.68481808	          8.26575292	         -7.63910639	          5.50121603	         -4.00697112	         31.49353795	          2.64846683	          3.04583173	         -1.55429880	        -13.85285863	        -13.45667766	         18.93629389	         23.75608929	          6.57570845	        -13.55673258	         19.33962663	         60.70997601	          0.14442808	          0.01000011	          0.01000015	          0.10079309	          0.01923804	          0.01000012	          0.22191338	          0.01000034	          0.01000046	          0.01000003	          0.01379296	          0.02048293	          0.10528030	          0.11209841	          0.08980541	          0.04690862	          0.01000016	          0.01433161	          0.04076633	          0.01375126	          0.08754995	          0.03921079	          0.01284755	          0.01194340	          0.26667770	          0.13408575	          0.19235063	          0.01431103	          0.09407408	          0.09962395	          0.08141032	          0.01958052	          0.02047919	          0.01711992	          0.01000001	          0.01000015	          0.01431171	          0.30906095	          0.20604849	          0.13042365	          0.23929375	          0.38232117	          0.07911296	          0.08358235	          0.09414517	          0.09722342	          0.11380494	          0.12811184	          0.12607126	          0.01000112	          0.01000085	          0.01000056	          0.04307037	          0.06039280	          0.03217259	          0.01000142	          0.01000372	          0.01001043	          0.01000450	          0.18222160	          0.02087740	          0.01436444	          0.02013171	          0.01523971	          0.01000078	          0.24793804	          0.36838599	          0.02926848	          0.02824947	          0.13116844	          0.11877595	          0.01000247	          0.01000211	          0.01000185	          0.24762691	          0.34107636	          0.27484064	          0.25798526	          0.30455582	          0.31335857	          0.01000007	          0.01014544	          0.01711611	          0.01000016	          0.01000004	          0.01000017	          0.05052368	          0.03171429	          0.02209627	          0.01000010	          0.04517254	          0.01000004	
          0.02355231	         -9.64206523	         -4.22336817	          3.52101337	          0.03499575	          0.98230445	         -0.00442662	         30.60464182	          4.99441891	          1.17122594	         -3.31247345	          8.77272513	         -9.86726373	          0.17651749	         -9.32832119	         -1.94867946	          7.70373303	         -9.85986279	          5.07772421	         -3.60313588	         33.09374164	          2.82120646	          3.46423305	         -1.60506213	        -14.60393758	        -13.47084949	         18.85438840	         23.29704101	          6.17954362	        -13.58655705	         19.31159584	         62.10987426	          0.17791873	          0.18389092	          0.24743036	          0.08425648	          0.13784988	          0.17056090	          0.18550458	          0.06035859	          0.03856517	          0.05327625	          0.01199603	          0.01712238	          0.08800722	          0.09370673	          0.07507131	          0.03921247	          0.01000332	          0.01198088	          0.06160934	          0.11921410	          0.07850955	          0.03277761	          0.01196203	          0.01196258	          0.22292513	          0.11208678	          0.16079271	          0.01196306	          0.07863960	          0.08327891	          0.06805354	          0.01636799	          0.01711923	          0.01431110	          0.01431069	          0.01196281	          0.01196371	          0.46157185	          0.25134552	          0.14930491	          0.35081236	          0.49929494	          0.22944850	          0.14940616	          0.07869899	          0.08127220	          0.12931601	          0.10709289	          0.10538705	          0.01000489	          0.01000041	          0.01000021	          0.03600392	          0.05048434	          0.02689426	          0.07188947	          0.01000201	          0.01000504	          0.01001346	          0.15232501	          0.01745359	          0.01200802	          0.01682910	          0.01273965	          0.01000100	          0.20725941	          0.30794574	          0.02446648	          0.02361470	          0.10964794	          0.09928866	          0.01007463	          0.01010517	          0.03202905	          0.20699931	          0.28511675	          0.24574955	          0.24755978	          0.29704214	          0.29685434	          0.01000003	          0.01000027	          0.01430794	          0.01000018	          0.01000005	          0.01000025	          0.05948625	          0.04513781	          0.02048096	          0.01000001	          0.03776118	          0.01000002	
          0.03532846	         -9.62045020	         -4.49138934	          3.67813037	          0.05250314	          0.98133772	         -0.00415180	         29.64114153	          5.35327109	          1.52492623	         -3.26335757	          7.73763877	        -10.29837984	          0.16850218	         -8.96781314	         -2.20473099	          7.14729875	        -12.30653432	          4.54732059	         -3.19488021	         34.44407720	          2.98718559	          3.86477243	         -1.64968878	        -15.28268197	        -13.48162350	         18.83030631	         22.86857859	          5.76441701	        -13.61136585	         19.28715888	         63.36062151	          0.24302257	          0.27614651	          0.35443972	          0.07043659	          0.11930398	          0.23284877	          0.15506929	          0.06750006	          0.04813336	          0.04453536	          0.01002798	          0.01431320	          0.07356812	          0.07833287	          0.06448035	          0.06328792	          0.01000028	          0.01001672	          0.05783971	          0.17835858	          0.11799336	          0.06152137	          0.01000007	          0.01000008	          0.18769479	          0.09369708	          0.23951144	          0.01000034	          0.06573760	          0.06961574	          0.05688835	          0.01368254	          0.01431053	          0.01196311	          0.01196278	          0.01000029	          0.01000092	          0.51603080	          0.23536214	          0.12837851	          0.49757644	          0.52159281	          0.25832667	          0.14657326	          0.06578704	          0.06793806	          0.13750530	          0.08952247	          0.08809646	          0.02443624	          0.01150823	          0.01114549	          0.03009685	          0.04220153	          0.02248189	          0.08253422	          0.08110681	          0.04222550	          0.05285124	          0.12733347	          0.01459061	          0.01003837	          0.01406850	          0.01065005	          0.01000285	          0.17325483	          0.25742178	          0.02045233	          0.01974035	          0.09165826	          0.08299861	          0.02620271	          0.02521467	          0.02678060	          0.17303740	          0.23833830	          0.20994533	          0.23164371	          0.27175587	          0.26797543	          0.01000006	          0.01000056	          0.01196053	          0.01000029	          0.01000008	          0.01000039	          0.06990367	          0.07104520	          0.01712072	          0.01000001	          0.03156579	          0.01000002	
